 @startuml
'https://plantuml.com/class-diagram
left to right direction

hide circle
skinparam classAttributeIconSize 0

class RouteHandler {
    +lendingDetails(lendingNumber): HttpResult
}

class HttpResult {
    -status: HttpStatus
    -result: json
    HttpResult(HttpStatus status, const json &result);
}

class LendingService{
    -getLendingByLendingNumber(lendingNumber:String):Lending
}

class LendingController {
    +lendingDetails(lendingNumber):Result
}

class LendingRepository {
    +findLendingDetails(lendingNumber: String): Lending
}

class Lending {
    -lendingNumber: String
    -lendDate: Date
    -limitDate: Date
    -returnDate: Date
    -returned: boolean
    lending(lendingNumber: String, ...): void
}

RouteHandler ..> LendingController
LendingController ..> LendingService
LendingService ..> LendingRepository
LendingService ..> Lending
LendingController ..> HttpResult
LendingRepository ..> LendingController

@enduml
