@startuml
'https://plantuml.com/class-diagram
left to right direction

hide circle
skinparam classAttributeIconSize 0

class RouteHandler {
    +postBook(isbn, title, genre, bookAuthors, description=None): HttpResult
}

class BookController {
    +postBook(isbn, title, genre, bookAuthors, description=None): Result
}

class BookService {
    -validate(book)
    +create(isbn, title, genre, bookAuthors, description=None): Result
    +add(book): Result
}

class EditBookMapper {
    +create(resource)
}


class Book {
    - isbn,
    - title,
    - genre,
    - bookAuthors,
    - description
    Book(isbn, title, genre, bookAuthors, description=None)
}

class BookRepository {
    +save(book): Result
}

class HttpResult {
    -status: HttpStatus
    -result: json
    HttpResult(HttpStatus status, const json &result);
}

class BookViewMapper
{
    + toBookView(book)
}


RouteHandler ..> BookController
BookController ..> BookService
BookController ..> BookViewMapper
BookService ..> BookRepository
BookService ..> Book
BookService ..> EditBookMapper
BookRepository ..> BookController
BookController ..> HttpResult

@enduml