@startuml
'https://plantuml.com/class-diagram

hide circle
skinparam classAttributeIconSize 0

class Author{
    - id
    - name
    - shortBio
    + getVersion()
    Author(name, shortBio)
}

class AuthorController
{
    + createAuthor(final EditAuthorRequest resource)
}
class AuthorServiceImpl
{
    + createAuthor(resource)
    + validateCreateAuthorRequest(request, id, resource)
}
class AuthorViewMapper
{
    + toAuthorView(author)
}

class EditAuthorMapper
{
    + create(resource)
}

class AuthorRepository
{
    + save(author)
}

class EditAuthorRequest
{
    - name
    - shortBio
}

class AuthorViewMapper
{
    + toAuthorView(author)
}

AuthorController ..> AuthorServiceImpl
AuthorController ..> AuthorViewMapper
AuthorServiceImpl ..> EditAuthorMapper
AuthorServiceImpl ..> AuthorRepository
AuthorController ..> AuthorViewMapper
EditAuthorMapper ..> EditAuthorRequest
AuthorController ..> Author
AuthorServiceImpl ..> Author
EditAuthorRequest ..> Author
AuthorRepository "1" --> "0..*" Author: records

@enduml