@startuml
'https://plantuml.com/class-diagram

hide circle
skinparam classAttributeIconSize 0

class BookController {
    + getTopGenres(): Iterable<GenreView>
}

class BookServiceImpl {
    + getTopGenres(): Iterable<Genre>
    - findAllBooks(): Iterable<Book>
}

class GenreViewMapper {
    + toGenreView(genres: Iterable<Genre>, books: Iterable<Book>): Iterable<GenreView>
}

class BookRepository {
    + findTopGenres(): Iterable<Genre>
    + findAll(): Iterable<Book>
}

class Genre {
    - id: String
    - name: String
}

class Book {
    - isbn: String
    - title: String
    - genre: Genre
    - authors: List<Author>
    - description: String
}

BookController ..> BookServiceImpl
BookServiceImpl..> BookRepository
BookController ..> GenreViewMapper
BookServiceImpl ..> Genre
BookRepository ..> Book
GenreViewMapper ..> Genre
GenreViewMapper ..> Book

@enduml
